<svg class="cp-logo-lg"
    xmlns="http://www.w3.org/2000/svg"
    viewBox="0 0 110 111"
    width="150px"
    height="150px">
<g>
  <circle fill="#90BA3E" cx="55.015" cy="32.599" r="7.876"/>
  <circle fill="#FAAE32" cx="55.015" cy="77.429" r="7.876"/>
  <circle fill="#2980BA" cx="39.165" cy="39.165" r="7.876"/>
  <circle fill="#C62860" cx="70.865" cy="70.865" r="7.876"/>
  <circle fill="#C62860" cx="32.6" cy="55.014" r="7.876"/>
  <circle fill="#2980BA" cx="77.429" cy="55.014" r="7.876"/>
  <circle fill="#90BA3E" cx="39.164" cy="70.865" r="7.876"/>
  <circle fill="#FAAE32" cx="70.863" cy="39.165" r="7.876"/>
</g>
<path fill="#C62860" d="M10.865,55c0-10.476,7.203-19.264,16.93-21.693c-1.74-0.434-3.561-0.667-5.434-0.667
  C10.012,32.639,0,42.65,0,55c0,12.35,10.012,22.362,22.361,22.36c1.873,0,3.693-0.232,5.434-0.667
  C18.068,74.266,10.865,65.476,10.865,55z"/>
<path fill="#2980BA" d="M99.135,55c0,10.477-7.205,19.267-16.929,21.693c1.739,0.435,3.56,0.667,5.432,0.667
  C99.988,77.36,110,67.349,110,55c0-12.349-10.012-22.36-22.362-22.36c-1.872,0-3.692,0.233-5.432,0.667
  C91.932,35.735,99.135,44.523,99.135,55z"/>
<path fill="#90BA3E" d="M54.998,10.864c10.477,0,19.267,7.206,21.693,16.929c0.434-1.74,0.669-3.557,0.669-5.431
  C77.36,10.011,67.35,0,54.998,0C42.649,0,32.638,10.011,32.64,22.363c0,1.872,0.232,3.691,0.667,5.431
  C35.732,18.068,44.523,10.864,54.998,10.864z"/>
<path fill="#FAAE32" d="M86.209,23.792c7.406,7.407,8.529,18.717,3.367,27.311c1.538-0.924,2.988-2.045,4.312-3.368
  c8.735-8.734,8.735-22.892,0-31.625c-8.73-8.732-22.89-8.732-31.623,0.002c-1.321,1.323-2.444,2.774-3.365,4.312
  C67.491,15.263,78.801,16.384,86.209,23.792z"/>
<path fill="#2980BA" d="M23.79,23.792c7.408-7.408,18.721-8.526,27.31-3.368c-0.92-1.538-2.043-2.989-3.367-4.312
  c-8.732-8.734-22.893-8.734-31.624,0c-8.731,8.731-8.731,22.89,0.002,31.623c1.323,1.323,2.775,2.444,4.312,3.366
  C15.263,42.509,16.383,31.199,23.79,23.792z"/>
<path fill="#C62860" d="M86.209,86.208c-7.408,7.407-18.718,8.527-27.312,3.367c0.924,1.538,2.044,2.989,3.368,4.314
  c8.735,8.732,22.893,8.732,31.625,0c8.733-8.732,8.733-22.89-0.002-31.622c-1.324-1.325-2.774-2.446-4.312-3.368
  C94.738,67.491,93.615,78.802,86.209,86.208z"/>
<path fill="#FAAE32" d="M76.976,90.757c0.249-1.335,0.385-2.711,0.385-4.118c0-1.874-0.233-3.693-0.667-5.433
  c-1.017,4.07-3.158,7.688-6.061,10.532C72.774,91.716,74.91,91.392,76.976,90.757z"/>
<path fill="#90BA3E" d="M44.203,96.359c1.614-0.945,3.146-2.084,4.529-3.469c1.324-1.325,2.447-2.776,3.367-4.312
  c-4.207,2.527-9.065,3.537-13.8,3.051C39.981,93.519,41.973,95.126,44.203,96.359z"/>
<path fill="#90BA3E" d="M21.792,86.21c-7.406-7.408-8.529-18.72-3.367-27.311c-1.539,0.922-2.991,2.043-4.314,3.368
  C5.377,71,5.377,85.16,14.11,93.893c5.118,5.117,12.098,7.211,18.76,6.328c-1.605-2.645-2.671-5.65-3.061-8.864
  C26.886,90.272,24.142,88.56,21.792,86.21z"/>
<path fill="#FAAE32" d="M64.463,97.527c-3.123,1.658-6.68,2.608-10.463,2.608c-3.916,0-7.596-1.008-10.797-2.776
  c-2.23-1.232-4.222-2.84-5.903-4.73c-2.36-2.652-4.106-5.865-4.993-9.422c-0.435,1.739-0.667,3.559-0.667,5.433
  c0,0.921,0.062,1.826,0.17,2.718c0.39,3.214,1.455,6.22,3.061,8.864C38.79,106.683,45.891,111,54,111
  c7.783,0,14.635-3.979,18.639-10.01C69.759,100.408,66.977,99.25,64.463,97.527z"/>
</svg>
